<svg width="64" height="64" viewBox="0 0 64 64" fill="none" xmlns="http://www.w3.org/2000/svg">
<path d="M32 16C23.2 16 16 23.2 16 32C16 38.6 19.9 44.2 25.6 46.7C25.6 45.6 25.6 44.2 25.9 43C26.2 41.7 28 34.3 28 34.3C28 34.3 27.5 33.3 27.5 31.8C27.5 29.4 28.9 27.7 30.6 27.7C32.1 27.7 32.8 28.8 32.8 30.1C32.8 31.6 31.9 33.8 31.4 35.8C31 37.5 32.3 38.9 33.9 38.9C36.9 38.9 39 35 39 30.4C39 26.9 36.6 24.3 32.3 24.3C27.4 24.3 24.4 27.9 24.4 32C24.4 33.4 24.8 34.4 25.5 35.1C25.8 35.4 25.8 35.6 25.7 36C25.6 36.3 25.4 37 25.4 37.3C25.3 37.7 25 37.9 24.6 37.7C22.4 36.8 21.3 34.3 21.3 31.6C21.3 27.1 25.1 21.6 32.7 21.6C38.8 21.6 42.8 26 42.8 30.8C42.8 37.1 39.3 41.8 34.2 41.8C32.5 41.8 30.8 40.9 30.3 39.8C30.3 39.8 29.4 43.5 29.2 44.2C28.9 45.4 28.2 46.7 27.6 47.6C29 48 30.6 48.3 32.1 48.3C40.9 48.3 48.1 41.1 48.1 32.3C48 23.2 40.8 16 32 16Z" fill="black"/>
</svg>
