<svg width="64" height="64" viewBox="0 0 64 64" fill="none" xmlns="http://www.w3.org/2000/svg">
<path d="M48 22.1C46.8 22.6 45.6 23 44.2 23.1C45.6 22.3 46.6 21 47.1 19.5C45.8 20.3 44.4 20.8 42.9 21.1C41.7 19.8 40 19 38.2 19C34.6 19 31.6 21.9 31.6 25.6C31.6 26.1 31.7 26.6 31.8 27.1C26.3 26.8 21.5 24.2 18.3 20.2C17.7 21.2 17.4 22.3 17.4 23.5C17.4 25.8 18.6 27.8 20.3 29C19.2 29 18.2 28.7 17.3 28.2V28.3C17.3 31.5 19.6 34.1 22.6 34.7C22 34.8 21.5 34.9 20.9 34.9C20.5 34.9 20.1 34.9 19.7 34.8C20.5 37.4 23 39.3 25.8 39.4C23.6 41.2 20.7 42.2 17.6 42.2C17.1 42.2 16.5 42.2 16 42.1C18.9 44 22.4 45 26.1 45C38.2 45 44.8 35 44.8 26.3C44.8 26 44.8 25.7 44.8 25.5C46 24.5 47.1 23.4 48 22.1Z" fill="black"/>
</svg>
